<?xml version="1.0" encoding="UTF-8" standalone="no"?><svg xmlns="http://www.w3.org/2000/svg" xmlns:xlink="http://www.w3.org/1999/xlink" contentScriptType="application/ecmascript" contentStyleType="text/css" height="907px" preserveAspectRatio="none" style="width:1798px;height:907px;" version="1.1" viewBox="0 0 1798 907" width="1798px" zoomAndPan="magnify"><defs><filter height="300%" id="fpwn8qp5u0eef" width="300%" x="-1" y="-1"><feGaussianBlur result="blurOut" stdDeviation="2.0"/><feColorMatrix in="blurOut" result="blurOut2" type="matrix" values="0 0 0 0 0 0 0 0 0 0 0 0 0 0 0 0 0 0 .4 0"/><feOffset dx="4.0" dy="4.0" in="blurOut2" result="blurOut3"/><feBlend in="SourceGraphic" in2="blurOut3" mode="normal"/></filter></defs><g><text fill="#000000" font-family="sans-serif" font-size="18" lengthAdjust="spacingAndGlyphs" textLength="80" x="862.5" y="16.708">Toolshop</text><!--MD5=[bc578a94c1801314389a5a39bc8c734a]
class ToolshopInventory--><rect fill="#FEFECE" filter="url(#fpwn8qp5u0eef)" height="112.0234" id="ToolshopInventory" style="stroke: #A80036; stroke-width: 1.5;" width="208" x="401.5" y="540.9531"/><ellipse cx="444.4" cy="556.9531" fill="#ADD1B2" rx="11" ry="11" style="stroke: #A80036; stroke-width: 1.0;"/><path d="M446.7438,552.625 L446.9156,552.7031 C447.1344,552.3906 447.3375,552.2969 447.6344,552.2969 C447.9313,552.2969 448.2125,552.4375 448.3688,552.7031 C448.4625,552.8594 448.4781,552.9844 448.4781,553.4219 L448.4781,554.8438 C448.4781,555.2656 448.4469,555.4531 448.3375,555.6094 C448.1656,555.8281 447.9,555.9688 447.6344,555.9688 C447.4156,555.9688 447.1813,555.8594 447.0406,555.7188 C446.9,555.5938 446.8688,555.4688 446.8063,555.0625 C446.7125,554.6563 446.5406,554.4375 446.0563,554.1563 C445.5875,553.9063 444.9781,553.75 444.4,553.75 C442.6656,553.75 441.4156,555.0625 441.4156,556.8438 L441.4156,557.9375 C441.4156,559.6406 442.7125,560.7344 444.7594,560.7344 C445.525,560.7344 446.2125,560.6094 446.6344,560.3438 C446.8219,560.25 446.8219,560.25 447.275,559.7656 C447.4625,559.5781 447.6656,559.5 447.8844,559.5 C448.3531,559.5 448.7438,559.8906 448.7438,560.3438 C448.7438,560.7344 448.4156,561.1875 447.8375,561.5938 C447.0875,562.1406 445.9313,562.4375 444.7125,562.4375 C441.8219,562.4375 439.7125,560.5469 439.7125,557.9688 L439.7125,556.8438 C439.7125,554.125 441.7125,552.0469 444.3375,552.0469 C445.2125,552.0469 445.8063,552.1875 446.7438,552.625 Z "/><text fill="#000000" font-family="sans-serif" font-size="12" lengthAdjust="spacingAndGlyphs" textLength="114" x="464.6" y="561.1074">ToolshopInventory</text><line style="stroke: #A80036; stroke-width: 1.5;" x1="402.5" x2="608.5" y1="572.9531" y2="572.9531"/><rect fill="none" height="6" style="stroke: #C82930; stroke-width: 1.0;" width="6" x="409.5" y="580.9531"/><text fill="#000000" font-family="sans-serif" font-size="11" lengthAdjust="spacingAndGlyphs" textLength="108" x="421.5" y="587.1636">List[Tool] inventory</text><line style="stroke: #A80036; stroke-width: 1.5;" x1="402.5" x2="608.5" y1="593.7578" y2="593.7578"/><rect fill="#F24D5C" height="6" style="stroke: #C82930; stroke-width: 1.0;" width="6" x="409.5" y="601.7578"/><text fill="#000000" font-family="sans-serif" font-size="11" lengthAdjust="spacingAndGlyphs" textLength="112" x="421.5" y="607.9683">ToolshopInventory()</text><ellipse cx="412.5" cy="617.5625" fill="#84BE84" rx="3" ry="3" style="stroke: #038048; stroke-width: 1.0;"/><text fill="#000000" font-family="sans-serif" font-size="11" lengthAdjust="spacingAndGlyphs" text-decoration="underline" textLength="182" x="421.5" y="620.7729">ToolshopInventory getInstance()</text><ellipse cx="412.5" cy="630.3672" fill="#84BE84" rx="3" ry="3" style="stroke: #038048; stroke-width: 1.0;"/><text fill="#000000" font-family="sans-serif" font-size="11" lengthAdjust="spacingAndGlyphs" textLength="110" x="421.5" y="633.5776">Tool checkoutTool()</text><ellipse cx="412.5" cy="643.1719" fill="#84BE84" rx="3" ry="3" style="stroke: #038048; stroke-width: 1.0;"/><text fill="#000000" font-family="sans-serif" font-size="11" lengthAdjust="spacingAndGlyphs" textLength="91" x="421.5" y="646.3823">returnTool(Tool)</text><!--MD5=[5910e465cccb2cec379e83a41f7f6503]
class Tool--><rect fill="#FEFECE" filter="url(#fpwn8qp5u0eef)" height="99.2188" id="Tool" style="stroke: #A80036; stroke-width: 1.5;" width="178" x="1228.5" y="547.4531"/><ellipse cx="1300.25" cy="563.4531" fill="#A9DCDF" rx="11" ry="11" style="stroke: #A80036; stroke-width: 1.0;"/><path d="M1301.8281,565.2656 L1297.7813,565.2656 L1297.3906,566.25 L1297.7813,566.25 C1298.2344,566.25 1298.375,566.2813 1298.5469,566.4063 C1298.7656,566.5781 1298.8906,566.8281 1298.8906,567.1094 C1298.8906,567.3906 1298.75,567.6875 1298.4844,567.8281 C1298.3594,567.9219 1298.1406,567.9531 1297.7813,567.9531 L1295.5156,567.9531 C1294.7656,567.9531 1294.3906,567.6719 1294.3906,567.1094 C1294.3906,566.8125 1294.5469,566.5313 1294.7969,566.375 C1294.9531,566.2656 1295.1094,566.25 1295.5313,566.25 L1298.1719,559.7344 L1297.0938,559.7344 C1296.6563,559.7344 1296.4844,559.7031 1296.3125,559.5938 C1296.0938,559.4219 1295.9531,559.1719 1295.9531,558.8906 C1295.9531,558.6094 1296.1094,558.3281 1296.3594,558.1563 C1296.5156,558.0625 1296.6406,558.0469 1297.0938,558.0469 L1300.7656,558.0469 L1304.1563,566.25 C1304.625,566.25 1304.7813,566.2813 1304.9531,566.4219 C1305.1719,566.5781 1305.3125,566.8281 1305.3125,567.1094 C1305.3125,567.3906 1305.1563,567.6875 1304.9063,567.8281 C1304.7656,567.9219 1304.5469,567.9531 1304.1875,567.9531 L1301.8281,567.9531 C1301.4063,567.9531 1301.2031,567.9063 1301.0625,567.7813 C1300.8438,567.625 1300.7031,567.375 1300.7031,567.1094 C1300.7031,566.8125 1300.8594,566.5313 1301.1094,566.375 C1301.2656,566.2656 1301.375,566.25 1301.8281,566.25 L1302.2188,566.25 Z M1301.125,563.5625 L1299.7969,560.2969 L1298.4531,563.5625 Z "/><text fill="#000000" font-family="sans-serif" font-size="12" font-style="italic" lengthAdjust="spacingAndGlyphs" textLength="26" x="1320.75" y="567.6074">Tool</text><line style="stroke: #A80036; stroke-width: 1.5;" x1="1229.5" x2="1405.5" y1="579.4531" y2="579.4531"/><polygon fill="none" points="1239.5,585.4531,1243.5,589.4531,1239.5,593.4531,1235.5,589.4531" style="stroke: #B38D22; stroke-width: 1.0;"/><text fill="#000000" font-family="sans-serif" font-size="11" lengthAdjust="spacingAndGlyphs" textLength="96" x="1248.5" y="593.6636">ToolCategory cat</text><line style="stroke: #A80036; stroke-width: 1.5;" x1="1229.5" x2="1405.5" y1="600.2578" y2="600.2578"/><ellipse cx="1239.5" cy="611.2578" fill="#84BE84" rx="3" ry="3" style="stroke: #038048; stroke-width: 1.0;"/><text fill="#000000" font-family="sans-serif" font-size="11" lengthAdjust="spacingAndGlyphs" textLength="32" x="1248.5" y="614.4683">Tool()</text><ellipse cx="1239.5" cy="624.0625" fill="#84BE84" rx="3" ry="3" style="stroke: #038048; stroke-width: 1.0;"/><text fill="#000000" font-family="sans-serif" font-size="11" lengthAdjust="spacingAndGlyphs" textLength="152" x="1248.5" y="627.2729">setCategory(ToolCategory)</text><ellipse cx="1239.5" cy="636.8672" fill="#84BE84" rx="3" ry="3" style="stroke: #038048; stroke-width: 1.0;"/><text fill="#000000" font-family="sans-serif" font-size="11" lengthAdjust="spacingAndGlyphs" textLength="72" x="1248.5" y="640.0776">int getPrice()</text><!--MD5=[8f733712d1aa7a01ecc40780978afb33]
class RentalRecord--><rect fill="#FEFECE" filter="url(#fpwn8qp5u0eef)" height="99.2188" id="RentalRecord" style="stroke: #A80036; stroke-width: 1.5;" width="195" x="645" y="547.4531"/><ellipse cx="696.25" cy="563.4531" fill="#ADD1B2" rx="11" ry="11" style="stroke: #A80036; stroke-width: 1.0;"/><path d="M698.5938,559.125 L698.7656,559.2031 C698.9844,558.8906 699.1875,558.7969 699.4844,558.7969 C699.7813,558.7969 700.0625,558.9375 700.2188,559.2031 C700.3125,559.3594 700.3281,559.4844 700.3281,559.9219 L700.3281,561.3438 C700.3281,561.7656 700.2969,561.9531 700.1875,562.1094 C700.0156,562.3281 699.75,562.4688 699.4844,562.4688 C699.2656,562.4688 699.0313,562.3594 698.8906,562.2188 C698.75,562.0938 698.7188,561.9688 698.6563,561.5625 C698.5625,561.1563 698.3906,560.9375 697.9063,560.6563 C697.4375,560.4063 696.8281,560.25 696.25,560.25 C694.5156,560.25 693.2656,561.5625 693.2656,563.3438 L693.2656,564.4375 C693.2656,566.1406 694.5625,567.2344 696.6094,567.2344 C697.375,567.2344 698.0625,567.1094 698.4844,566.8438 C698.6719,566.75 698.6719,566.75 699.125,566.2656 C699.3125,566.0781 699.5156,566 699.7344,566 C700.2031,566 700.5938,566.3906 700.5938,566.8438 C700.5938,567.2344 700.2656,567.6875 699.6875,568.0938 C698.9375,568.6406 697.7813,568.9375 696.5625,568.9375 C693.6719,568.9375 691.5625,567.0469 691.5625,564.4688 L691.5625,563.3438 C691.5625,560.625 693.5625,558.5469 696.1875,558.5469 C697.0625,558.5469 697.6563,558.6875 698.5938,559.125 Z "/><text fill="#000000" font-family="sans-serif" font-size="12" lengthAdjust="spacingAndGlyphs" textLength="84" x="716.75" y="567.6074">RentalRecord</text><line style="stroke: #A80036; stroke-width: 1.5;" x1="646" x2="839" y1="579.4531" y2="579.4531"/><rect fill="none" height="6" style="stroke: #C82930; stroke-width: 1.0;" width="6" x="653" y="587.4531"/><text fill="#000000" font-family="sans-serif" font-size="11" lengthAdjust="spacingAndGlyphs" textLength="95" x="665" y="593.6636">Customer renter</text><rect fill="none" height="6" style="stroke: #C82930; stroke-width: 1.0;" width="6" x="653" y="600.2578"/><text fill="#000000" font-family="sans-serif" font-size="11" lengthAdjust="spacingAndGlyphs" textLength="169" x="665" y="606.4683">List[Purchasable] toolsRented</text><line style="stroke: #A80036; stroke-width: 1.5;" x1="646" x2="839" y1="613.0625" y2="613.0625"/><ellipse cx="656" cy="624.0625" fill="#84BE84" rx="3" ry="3" style="stroke: #038048; stroke-width: 1.0;"/><text fill="#000000" font-family="sans-serif" font-size="11" lengthAdjust="spacingAndGlyphs" textLength="82" x="665" y="627.2729">RentalRecord()</text><ellipse cx="656" cy="636.8672" fill="#84BE84" rx="3" ry="3" style="stroke: #038048; stroke-width: 1.0;"/><text fill="#000000" font-family="sans-serif" font-size="11" lengthAdjust="spacingAndGlyphs" textLength="159" x="665" y="640.0776">List[Purchasable] getTools()</text><!--MD5=[b4d3d50c0abf08df45181fececb9f04d]
class Store--><rect fill="#FEFECE" filter="url(#fpwn8qp5u0eef)" height="112.0234" id="Store" style="stroke: #A80036; stroke-width: 1.5;" width="211" x="629" y="351.9531"/><ellipse cx="713.25" cy="367.9531" fill="#ADD1B2" rx="11" ry="11" style="stroke: #A80036; stroke-width: 1.0;"/><path d="M715.5938,363.625 L715.7656,363.7031 C715.9844,363.3906 716.1875,363.2969 716.4844,363.2969 C716.7813,363.2969 717.0625,363.4375 717.2188,363.7031 C717.3125,363.8594 717.3281,363.9844 717.3281,364.4219 L717.3281,365.8438 C717.3281,366.2656 717.2969,366.4531 717.1875,366.6094 C717.0156,366.8281 716.75,366.9688 716.4844,366.9688 C716.2656,366.9688 716.0313,366.8594 715.8906,366.7188 C715.75,366.5938 715.7188,366.4688 715.6563,366.0625 C715.5625,365.6563 715.3906,365.4375 714.9063,365.1563 C714.4375,364.9063 713.8281,364.75 713.25,364.75 C711.5156,364.75 710.2656,366.0625 710.2656,367.8438 L710.2656,368.9375 C710.2656,370.6406 711.5625,371.7344 713.6094,371.7344 C714.375,371.7344 715.0625,371.6094 715.4844,371.3438 C715.6719,371.25 715.6719,371.25 716.125,370.7656 C716.3125,370.5781 716.5156,370.5 716.7344,370.5 C717.2031,370.5 717.5938,370.8906 717.5938,371.3438 C717.5938,371.7344 717.2656,372.1875 716.6875,372.5938 C715.9375,373.1406 714.7813,373.4375 713.5625,373.4375 C710.6719,373.4375 708.5625,371.5469 708.5625,368.9688 L708.5625,367.8438 C708.5625,365.125 710.5625,363.0469 713.1875,363.0469 C714.0625,363.0469 714.6563,363.1875 715.5938,363.625 Z "/><text fill="#000000" font-family="sans-serif" font-size="12" lengthAdjust="spacingAndGlyphs" textLength="34" x="733.75" y="372.1074">Store</text><line style="stroke: #A80036; stroke-width: 1.5;" x1="630" x2="839" y1="383.9531" y2="383.9531"/><rect fill="none" height="6" style="stroke: #C82930; stroke-width: 1.0;" width="6" x="637" y="391.9531"/><text fill="#000000" font-family="sans-serif" font-size="11" lengthAdjust="spacingAndGlyphs" text-decoration="underline" textLength="83" x="649" y="398.1636">Store instance</text><rect fill="none" height="6" style="stroke: #C82930; stroke-width: 1.0;" width="6" x="637" y="404.7578"/><text fill="#000000" font-family="sans-serif" font-size="11" lengthAdjust="spacingAndGlyphs" textLength="160" x="649" y="410.9683">ToolshopInventory inventory</text><rect fill="none" height="6" style="stroke: #C82930; stroke-width: 1.0;" width="6" x="637" y="417.5625"/><text fill="#000000" font-family="sans-serif" font-size="11" lengthAdjust="spacingAndGlyphs" textLength="185" x="649" y="423.7729">List[RentalRecord] rentalRecords</text><line style="stroke: #A80036; stroke-width: 1.5;" x1="630" x2="839" y1="430.3672" y2="430.3672"/><rect fill="#F24D5C" height="6" style="stroke: #C82930; stroke-width: 1.0;" width="6" x="637" y="438.3672"/><text fill="#000000" font-family="sans-serif" font-size="11" lengthAdjust="spacingAndGlyphs" textLength="39" x="649" y="444.5776">Store()</text><ellipse cx="640" cy="454.1719" fill="#84BE84" rx="3" ry="3" style="stroke: #038048; stroke-width: 1.0;"/><text fill="#000000" font-family="sans-serif" font-size="11" lengthAdjust="spacingAndGlyphs" text-decoration="underline" textLength="109" x="649" y="457.3823">Store getInstance()</text><!--MD5=[2ce0c9fb7f55b1e256ab28a8ea6b25ec]
class Customer--><rect fill="#FEFECE" filter="url(#fpwn8qp5u0eef)" height="73.6094" id="Customer" style="stroke: #A80036; stroke-width: 1.5;" width="96" x="881.5" y="713.9531"/><ellipse cx="898.75" cy="729.9531" fill="#A9DCDF" rx="11" ry="11" style="stroke: #A80036; stroke-width: 1.0;"/><path d="M900.3281,731.7656 L896.2813,731.7656 L895.8906,732.75 L896.2813,732.75 C896.7344,732.75 896.875,732.7813 897.0469,732.9063 C897.2656,733.0781 897.3906,733.3281 897.3906,733.6094 C897.3906,733.8906 897.25,734.1875 896.9844,734.3281 C896.8594,734.4219 896.6406,734.4531 896.2813,734.4531 L894.0156,734.4531 C893.2656,734.4531 892.8906,734.1719 892.8906,733.6094 C892.8906,733.3125 893.0469,733.0313 893.2969,732.875 C893.4531,732.7656 893.6094,732.75 894.0313,732.75 L896.6719,726.2344 L895.5938,726.2344 C895.1563,726.2344 894.9844,726.2031 894.8125,726.0938 C894.5938,725.9219 894.4531,725.6719 894.4531,725.3906 C894.4531,725.1094 894.6094,724.8281 894.8594,724.6563 C895.0156,724.5625 895.1406,724.5469 895.5938,724.5469 L899.2656,724.5469 L902.6563,732.75 C903.125,732.75 903.2813,732.7813 903.4531,732.9219 C903.6719,733.0781 903.8125,733.3281 903.8125,733.6094 C903.8125,733.8906 903.6563,734.1875 903.4063,734.3281 C903.2656,734.4219 903.0469,734.4531 902.6875,734.4531 L900.3281,734.4531 C899.9063,734.4531 899.7031,734.4063 899.5625,734.2813 C899.3438,734.125 899.2031,733.875 899.2031,733.6094 C899.2031,733.3125 899.3594,733.0313 899.6094,732.875 C899.7656,732.7656 899.875,732.75 900.3281,732.75 L900.7188,732.75 Z M899.625,730.0625 L898.2969,726.7969 L896.9531,730.0625 Z "/><text fill="#000000" font-family="sans-serif" font-size="12" font-style="italic" lengthAdjust="spacingAndGlyphs" textLength="59" x="913.25" y="734.1074">Customer</text><line style="stroke: #A80036; stroke-width: 1.5;" x1="882.5" x2="976.5" y1="745.9531" y2="745.9531"/><polygon fill="none" points="892.5,751.9531,896.5,755.9531,892.5,759.9531,888.5,755.9531" style="stroke: #B38D22; stroke-width: 1.0;"/><text fill="#000000" font-family="sans-serif" font-size="11" lengthAdjust="spacingAndGlyphs" textLength="70" x="901.5" y="760.1636">String name</text><line style="stroke: #A80036; stroke-width: 1.5;" x1="882.5" x2="976.5" y1="766.7578" y2="766.7578"/><ellipse cx="892.5" cy="777.7578" fill="#84BE84" rx="3" ry="3" style="stroke: #038048; stroke-width: 1.0;"/><text fill="#000000" font-family="sans-serif" font-size="11" font-style="italic" lengthAdjust="spacingAndGlyphs" textLength="61" x="901.5" y="780.9683">rentTools()</text><!--MD5=[68bd221195a6763869c66a8a4a6617a9]
class ToolCategory--><rect fill="#FEFECE" filter="url(#fpwn8qp5u0eef)" height="86.4141" id="ToolCategory" style="stroke: #A80036; stroke-width: 1.5;" width="127" x="239" y="553.9531"/><ellipse cx="259.4" cy="569.9531" fill="#A9DCDF" rx="11" ry="11" style="stroke: #A80036; stroke-width: 1.0;"/><path d="M260.9781,571.7656 L256.9313,571.7656 L256.5406,572.75 L256.9313,572.75 C257.3844,572.75 257.525,572.7813 257.6969,572.9063 C257.9156,573.0781 258.0406,573.3281 258.0406,573.6094 C258.0406,573.8906 257.9,574.1875 257.6344,574.3281 C257.5094,574.4219 257.2906,574.4531 256.9313,574.4531 L254.6656,574.4531 C253.9156,574.4531 253.5406,574.1719 253.5406,573.6094 C253.5406,573.3125 253.6969,573.0313 253.9469,572.875 C254.1031,572.7656 254.2594,572.75 254.6812,572.75 L257.3219,566.2344 L256.2438,566.2344 C255.8062,566.2344 255.6344,566.2031 255.4625,566.0938 C255.2437,565.9219 255.1031,565.6719 255.1031,565.3906 C255.1031,565.1094 255.2594,564.8281 255.5094,564.6563 C255.6656,564.5625 255.7906,564.5469 256.2438,564.5469 L259.9156,564.5469 L263.3063,572.75 C263.775,572.75 263.9313,572.7813 264.1031,572.9219 C264.3219,573.0781 264.4625,573.3281 264.4625,573.6094 C264.4625,573.8906 264.3063,574.1875 264.0563,574.3281 C263.9156,574.4219 263.6969,574.4531 263.3375,574.4531 L260.9781,574.4531 C260.5563,574.4531 260.3531,574.4063 260.2125,574.2813 C259.9938,574.125 259.8531,573.875 259.8531,573.6094 C259.8531,573.3125 260.0094,573.0313 260.2594,572.875 C260.4156,572.7656 260.525,572.75 260.9781,572.75 L261.3688,572.75 Z M260.275,570.0625 L258.9469,566.7969 L257.6031,570.0625 Z "/><text fill="#000000" font-family="sans-serif" font-size="12" font-style="italic" lengthAdjust="spacingAndGlyphs" textLength="83" x="274.6" y="574.1074">ToolCategory</text><line style="stroke: #A80036; stroke-width: 1.5;" x1="240" x2="365" y1="585.9531" y2="585.9531"/><polygon fill="none" points="250,591.9531,254,595.9531,250,599.9531,246,595.9531" style="stroke: #B38D22; stroke-width: 1.0;"/><text fill="#000000" font-family="sans-serif" font-size="11" lengthAdjust="spacingAndGlyphs" textLength="74" x="259" y="600.1636">int basePrice</text><line style="stroke: #A80036; stroke-width: 1.5;" x1="240" x2="365" y1="606.7578" y2="606.7578"/><ellipse cx="250" cy="617.7578" fill="#84BE84" rx="3" ry="3" style="stroke: #038048; stroke-width: 1.0;"/><text fill="#000000" font-family="sans-serif" font-size="11" lengthAdjust="spacingAndGlyphs" textLength="97" x="259" y="620.9683">ToolCategory(int)</text><ellipse cx="250" cy="630.5625" fill="#84BE84" rx="3" ry="3" style="stroke: #038048; stroke-width: 1.0;"/><text fill="#000000" font-family="sans-serif" font-size="11" lengthAdjust="spacingAndGlyphs" textLength="101" x="259" y="633.7729">int getBasePrice()</text><!--MD5=[ccb6b53f2b3136c820d7801ae6f29901]
class Painting--><rect fill="#FEFECE" filter="url(#fpwn8qp5u0eef)" height="60.8047" id="Painting" style="stroke: #A80036; stroke-width: 1.5;" width="83" x="510" y="720.4531"/><ellipse cx="525" cy="736.4531" fill="#ADD1B2" rx="11" ry="11" style="stroke: #A80036; stroke-width: 1.0;"/><path d="M527.3438,732.125 L527.5156,732.2031 C527.7344,731.8906 527.9375,731.7969 528.2344,731.7969 C528.5313,731.7969 528.8125,731.9375 528.9688,732.2031 C529.0625,732.3594 529.0781,732.4844 529.0781,732.9219 L529.0781,734.3438 C529.0781,734.7656 529.0469,734.9531 528.9375,735.1094 C528.7656,735.3281 528.5,735.4688 528.2344,735.4688 C528.0156,735.4688 527.7813,735.3594 527.6406,735.2188 C527.5,735.0938 527.4688,734.9688 527.4063,734.5625 C527.3125,734.1563 527.1406,733.9375 526.6563,733.6563 C526.1875,733.4063 525.5781,733.25 525,733.25 C523.2656,733.25 522.0156,734.5625 522.0156,736.3438 L522.0156,737.4375 C522.0156,739.1406 523.3125,740.2344 525.3594,740.2344 C526.125,740.2344 526.8125,740.1094 527.2344,739.8438 C527.4219,739.75 527.4219,739.75 527.875,739.2656 C528.0625,739.0781 528.2656,739 528.4844,739 C528.9531,739 529.3438,739.3906 529.3438,739.8438 C529.3438,740.2344 529.0156,740.6875 528.4375,741.0938 C527.6875,741.6406 526.5313,741.9375 525.3125,741.9375 C522.4219,741.9375 520.3125,740.0469 520.3125,737.4688 L520.3125,736.3438 C520.3125,733.625 522.3125,731.5469 524.9375,731.5469 C525.8125,731.5469 526.4063,731.6875 527.3438,732.125 Z "/><text fill="#000000" font-family="sans-serif" font-size="12" lengthAdjust="spacingAndGlyphs" textLength="51" x="539" y="740.6074">Painting</text><line style="stroke: #A80036; stroke-width: 1.5;" x1="511" x2="592" y1="752.4531" y2="752.4531"/><line style="stroke: #A80036; stroke-width: 1.5;" x1="511" x2="592" y1="760.4531" y2="760.4531"/><ellipse cx="521" cy="771.4531" fill="#84BE84" rx="3" ry="3" style="stroke: #038048; stroke-width: 1.0;"/><text fill="#000000" font-family="sans-serif" font-size="11" lengthAdjust="spacingAndGlyphs" textLength="53" x="530" y="774.6636">Painting()</text><!--MD5=[c17618878bde497e5e182ee7efbf4b71]
class Concrete--><rect fill="#FEFECE" filter="url(#fpwn8qp5u0eef)" height="60.8047" id="Concrete" style="stroke: #A80036; stroke-width: 1.5;" width="89" x="6" y="720.4531"/><ellipse cx="21" cy="736.4531" fill="#ADD1B2" rx="11" ry="11" style="stroke: #A80036; stroke-width: 1.0;"/><path d="M23.3438,732.125 L23.5156,732.2031 C23.7344,731.8906 23.9375,731.7969 24.2344,731.7969 C24.5313,731.7969 24.8125,731.9375 24.9688,732.2031 C25.0625,732.3594 25.0781,732.4844 25.0781,732.9219 L25.0781,734.3438 C25.0781,734.7656 25.0469,734.9531 24.9375,735.1094 C24.7656,735.3281 24.5,735.4688 24.2344,735.4688 C24.0156,735.4688 23.7813,735.3594 23.6406,735.2188 C23.5,735.0938 23.4688,734.9688 23.4063,734.5625 C23.3125,734.1563 23.1406,733.9375 22.6563,733.6563 C22.1875,733.4063 21.5781,733.25 21,733.25 C19.2656,733.25 18.0156,734.5625 18.0156,736.3438 L18.0156,737.4375 C18.0156,739.1406 19.3125,740.2344 21.3594,740.2344 C22.125,740.2344 22.8125,740.1094 23.2344,739.8438 C23.4219,739.75 23.4219,739.75 23.875,739.2656 C24.0625,739.0781 24.2656,739 24.4844,739 C24.9531,739 25.3438,739.3906 25.3438,739.8438 C25.3438,740.2344 25.0156,740.6875 24.4375,741.0938 C23.6875,741.6406 22.5313,741.9375 21.3125,741.9375 C18.4219,741.9375 16.3125,740.0469 16.3125,737.4688 L16.3125,736.3438 C16.3125,733.625 18.3125,731.5469 20.9375,731.5469 C21.8125,731.5469 22.4063,731.6875 23.3438,732.125 Z "/><text fill="#000000" font-family="sans-serif" font-size="12" lengthAdjust="spacingAndGlyphs" textLength="57" x="35" y="740.6074">Concrete</text><line style="stroke: #A80036; stroke-width: 1.5;" x1="7" x2="94" y1="752.4531" y2="752.4531"/><line style="stroke: #A80036; stroke-width: 1.5;" x1="7" x2="94" y1="760.4531" y2="760.4531"/><ellipse cx="17" cy="771.4531" fill="#84BE84" rx="3" ry="3" style="stroke: #038048; stroke-width: 1.0;"/><text fill="#000000" font-family="sans-serif" font-size="11" lengthAdjust="spacingAndGlyphs" textLength="59" x="26" y="774.6636">Concrete()</text><!--MD5=[e19db13397451a173203d756654d6a77]
class Plumbing--><rect fill="#FEFECE" filter="url(#fpwn8qp5u0eef)" height="60.8047" id="Plumbing" style="stroke: #A80036; stroke-width: 1.5;" width="89" x="130" y="720.4531"/><ellipse cx="145" cy="736.4531" fill="#ADD1B2" rx="11" ry="11" style="stroke: #A80036; stroke-width: 1.0;"/><path d="M147.3438,732.125 L147.5156,732.2031 C147.7344,731.8906 147.9375,731.7969 148.2344,731.7969 C148.5313,731.7969 148.8125,731.9375 148.9688,732.2031 C149.0625,732.3594 149.0781,732.4844 149.0781,732.9219 L149.0781,734.3438 C149.0781,734.7656 149.0469,734.9531 148.9375,735.1094 C148.7656,735.3281 148.5,735.4688 148.2344,735.4688 C148.0156,735.4688 147.7813,735.3594 147.6406,735.2188 C147.5,735.0938 147.4688,734.9688 147.4063,734.5625 C147.3125,734.1563 147.1406,733.9375 146.6563,733.6563 C146.1875,733.4063 145.5781,733.25 145,733.25 C143.2656,733.25 142.0156,734.5625 142.0156,736.3438 L142.0156,737.4375 C142.0156,739.1406 143.3125,740.2344 145.3594,740.2344 C146.125,740.2344 146.8125,740.1094 147.2344,739.8438 C147.4219,739.75 147.4219,739.75 147.875,739.2656 C148.0625,739.0781 148.2656,739 148.4844,739 C148.9531,739 149.3438,739.3906 149.3438,739.8438 C149.3438,740.2344 149.0156,740.6875 148.4375,741.0938 C147.6875,741.6406 146.5313,741.9375 145.3125,741.9375 C142.4219,741.9375 140.3125,740.0469 140.3125,737.4688 L140.3125,736.3438 C140.3125,733.625 142.3125,731.5469 144.9375,731.5469 C145.8125,731.5469 146.4063,731.6875 147.3438,732.125 Z "/><text fill="#000000" font-family="sans-serif" font-size="12" lengthAdjust="spacingAndGlyphs" textLength="57" x="159" y="740.6074">Plumbing</text><line style="stroke: #A80036; stroke-width: 1.5;" x1="131" x2="218" y1="752.4531" y2="752.4531"/><line style="stroke: #A80036; stroke-width: 1.5;" x1="131" x2="218" y1="760.4531" y2="760.4531"/><ellipse cx="141" cy="771.4531" fill="#84BE84" rx="3" ry="3" style="stroke: #038048; stroke-width: 1.0;"/><text fill="#000000" font-family="sans-serif" font-size="11" lengthAdjust="spacingAndGlyphs" textLength="60" x="150" y="774.6636">Plumbing()</text><!--MD5=[819e19a85406b116ab8cd9b4c370ae73]
class Woodwork--><rect fill="#FEFECE" filter="url(#fpwn8qp5u0eef)" height="60.8047" id="Woodwork" style="stroke: #A80036; stroke-width: 1.5;" width="96" x="254.5" y="720.4531"/><ellipse cx="269.5" cy="736.4531" fill="#ADD1B2" rx="11" ry="11" style="stroke: #A80036; stroke-width: 1.0;"/><path d="M271.8438,732.125 L272.0156,732.2031 C272.2344,731.8906 272.4375,731.7969 272.7344,731.7969 C273.0313,731.7969 273.3125,731.9375 273.4688,732.2031 C273.5625,732.3594 273.5781,732.4844 273.5781,732.9219 L273.5781,734.3438 C273.5781,734.7656 273.5469,734.9531 273.4375,735.1094 C273.2656,735.3281 273,735.4688 272.7344,735.4688 C272.5156,735.4688 272.2813,735.3594 272.1406,735.2188 C272,735.0938 271.9688,734.9688 271.9063,734.5625 C271.8125,734.1563 271.6406,733.9375 271.1563,733.6563 C270.6875,733.4063 270.0781,733.25 269.5,733.25 C267.7656,733.25 266.5156,734.5625 266.5156,736.3438 L266.5156,737.4375 C266.5156,739.1406 267.8125,740.2344 269.8594,740.2344 C270.625,740.2344 271.3125,740.1094 271.7344,739.8438 C271.9219,739.75 271.9219,739.75 272.375,739.2656 C272.5625,739.0781 272.7656,739 272.9844,739 C273.4531,739 273.8438,739.3906 273.8438,739.8438 C273.8438,740.2344 273.5156,740.6875 272.9375,741.0938 C272.1875,741.6406 271.0313,741.9375 269.8125,741.9375 C266.9219,741.9375 264.8125,740.0469 264.8125,737.4688 L264.8125,736.3438 C264.8125,733.625 266.8125,731.5469 269.4375,731.5469 C270.3125,731.5469 270.9063,731.6875 271.8438,732.125 Z "/><text fill="#000000" font-family="sans-serif" font-size="12" lengthAdjust="spacingAndGlyphs" textLength="64" x="283.5" y="740.6074">Woodwork</text><line style="stroke: #A80036; stroke-width: 1.5;" x1="255.5" x2="349.5" y1="752.4531" y2="752.4531"/><line style="stroke: #A80036; stroke-width: 1.5;" x1="255.5" x2="349.5" y1="760.4531" y2="760.4531"/><ellipse cx="265.5" cy="771.4531" fill="#84BE84" rx="3" ry="3" style="stroke: #038048; stroke-width: 1.0;"/><text fill="#000000" font-family="sans-serif" font-size="11" lengthAdjust="spacingAndGlyphs" textLength="65" x="274.5" y="774.6636">Woodwork()</text><!--MD5=[fb725066fde8ebcd21850760c8532d44]
class Yardwork--><rect fill="#FEFECE" filter="url(#fpwn8qp5u0eef)" height="60.8047" id="Yardwork" style="stroke: #A80036; stroke-width: 1.5;" width="89" x="386" y="720.4531"/><ellipse cx="401" cy="736.4531" fill="#ADD1B2" rx="11" ry="11" style="stroke: #A80036; stroke-width: 1.0;"/><path d="M403.3438,732.125 L403.5156,732.2031 C403.7344,731.8906 403.9375,731.7969 404.2344,731.7969 C404.5313,731.7969 404.8125,731.9375 404.9688,732.2031 C405.0625,732.3594 405.0781,732.4844 405.0781,732.9219 L405.0781,734.3438 C405.0781,734.7656 405.0469,734.9531 404.9375,735.1094 C404.7656,735.3281 404.5,735.4688 404.2344,735.4688 C404.0156,735.4688 403.7813,735.3594 403.6406,735.2188 C403.5,735.0938 403.4688,734.9688 403.4063,734.5625 C403.3125,734.1563 403.1406,733.9375 402.6563,733.6563 C402.1875,733.4063 401.5781,733.25 401,733.25 C399.2656,733.25 398.0156,734.5625 398.0156,736.3438 L398.0156,737.4375 C398.0156,739.1406 399.3125,740.2344 401.3594,740.2344 C402.125,740.2344 402.8125,740.1094 403.2344,739.8438 C403.4219,739.75 403.4219,739.75 403.875,739.2656 C404.0625,739.0781 404.2656,739 404.4844,739 C404.9531,739 405.3438,739.3906 405.3438,739.8438 C405.3438,740.2344 405.0156,740.6875 404.4375,741.0938 C403.6875,741.6406 402.5313,741.9375 401.3125,741.9375 C398.4219,741.9375 396.3125,740.0469 396.3125,737.4688 L396.3125,736.3438 C396.3125,733.625 398.3125,731.5469 400.9375,731.5469 C401.8125,731.5469 402.4063,731.6875 403.3438,732.125 Z "/><text fill="#000000" font-family="sans-serif" font-size="12" lengthAdjust="spacingAndGlyphs" textLength="57" x="415" y="740.6074">Yardwork</text><line style="stroke: #A80036; stroke-width: 1.5;" x1="387" x2="474" y1="752.4531" y2="752.4531"/><line style="stroke: #A80036; stroke-width: 1.5;" x1="387" x2="474" y1="760.4531" y2="760.4531"/><ellipse cx="397" cy="771.4531" fill="#84BE84" rx="3" ry="3" style="stroke: #038048; stroke-width: 1.0;"/><text fill="#000000" font-family="sans-serif" font-size="11" lengthAdjust="spacingAndGlyphs" textLength="61" x="406" y="774.6636">Yardwork()</text><!--MD5=[92293409e5d12ac69172a768b40ae9ad]
class Purchasable--><rect fill="#FEFECE" filter="url(#fpwn8qp5u0eef)" height="86.4141" id="Purchasable" style="stroke: #A80036; stroke-width: 1.5;" width="117" x="1361" y="364.9531"/><ellipse cx="1380.05" cy="380.9531" fill="#A9DCDF" rx="11" ry="11" style="stroke: #A80036; stroke-width: 1.0;"/><path d="M1381.6281,382.7656 L1377.5813,382.7656 L1377.1906,383.75 L1377.5813,383.75 C1378.0344,383.75 1378.175,383.7813 1378.3469,383.9063 C1378.5656,384.0781 1378.6906,384.3281 1378.6906,384.6094 C1378.6906,384.8906 1378.55,385.1875 1378.2844,385.3281 C1378.1594,385.4219 1377.9406,385.4531 1377.5813,385.4531 L1375.3156,385.4531 C1374.5656,385.4531 1374.1906,385.1719 1374.1906,384.6094 C1374.1906,384.3125 1374.3469,384.0313 1374.5969,383.875 C1374.7531,383.7656 1374.9094,383.75 1375.3313,383.75 L1377.9719,377.2344 L1376.8938,377.2344 C1376.4563,377.2344 1376.2844,377.2031 1376.1125,377.0938 C1375.8938,376.9219 1375.7531,376.6719 1375.7531,376.3906 C1375.7531,376.1094 1375.9094,375.8281 1376.1594,375.6563 C1376.3156,375.5625 1376.4406,375.5469 1376.8938,375.5469 L1380.5656,375.5469 L1383.9563,383.75 C1384.425,383.75 1384.5813,383.7813 1384.7531,383.9219 C1384.9719,384.0781 1385.1125,384.3281 1385.1125,384.6094 C1385.1125,384.8906 1384.9563,385.1875 1384.7063,385.3281 C1384.5656,385.4219 1384.3469,385.4531 1383.9875,385.4531 L1381.6281,385.4531 C1381.2063,385.4531 1381.0031,385.4063 1380.8625,385.2813 C1380.6438,385.125 1380.5031,384.875 1380.5031,384.6094 C1380.5031,384.3125 1380.6594,384.0313 1380.9094,383.875 C1381.0656,383.7656 1381.175,383.75 1381.6281,383.75 L1382.0188,383.75 Z M1380.925,381.0625 L1379.5969,377.7969 L1378.2531,381.0625 Z "/><text fill="#000000" font-family="sans-serif" font-size="12" font-style="italic" lengthAdjust="spacingAndGlyphs" textLength="76" x="1394.95" y="385.1074">Purchasable</text><line style="stroke: #A80036; stroke-width: 1.5;" x1="1362" x2="1477" y1="396.9531" y2="396.9531"/><polygon fill="none" points="1372,402.9531,1376,406.9531,1372,410.9531,1368,406.9531" style="stroke: #B38D22; stroke-width: 1.0;"/><text fill="#000000" font-family="sans-serif" font-size="11" lengthAdjust="spacingAndGlyphs" textLength="42" x="1381" y="411.1636">int cost</text><polygon fill="none" points="1372,415.7578,1376,419.7578,1372,423.7578,1368,419.7578" style="stroke: #B38D22; stroke-width: 1.0;"/><text fill="#000000" font-family="sans-serif" font-size="11" lengthAdjust="spacingAndGlyphs" textLength="91" x="1381" y="423.9683">int timeOfRental</text><line style="stroke: #A80036; stroke-width: 1.5;" x1="1362" x2="1477" y1="430.5625" y2="430.5625"/><ellipse cx="1372" cy="441.5625" fill="#84BE84" rx="3" ry="3" style="stroke: #038048; stroke-width: 1.0;"/><text fill="#000000" font-family="sans-serif" font-size="11" lengthAdjust="spacingAndGlyphs" textLength="72" x="1381" y="444.7729">int getPrice()</text><!--MD5=[0623120cdaa229033b25b221760ed287]
class PurchaseDecorator--><rect fill="#FEFECE" filter="url(#fpwn8qp5u0eef)" height="60.8047" id="PurchaseDecorator" style="stroke: #A80036; stroke-width: 1.5;" width="152" x="1441.5" y="566.4531"/><ellipse cx="1456.5" cy="582.4531" fill="#A9DCDF" rx="11" ry="11" style="stroke: #A80036; stroke-width: 1.0;"/><path d="M1458.0781,584.2656 L1454.0313,584.2656 L1453.6406,585.25 L1454.0313,585.25 C1454.4844,585.25 1454.625,585.2813 1454.7969,585.4063 C1455.0156,585.5781 1455.1406,585.8281 1455.1406,586.1094 C1455.1406,586.3906 1455,586.6875 1454.7344,586.8281 C1454.6094,586.9219 1454.3906,586.9531 1454.0313,586.9531 L1451.7656,586.9531 C1451.0156,586.9531 1450.6406,586.6719 1450.6406,586.1094 C1450.6406,585.8125 1450.7969,585.5313 1451.0469,585.375 C1451.2031,585.2656 1451.3594,585.25 1451.7813,585.25 L1454.4219,578.7344 L1453.3438,578.7344 C1452.9063,578.7344 1452.7344,578.7031 1452.5625,578.5938 C1452.3438,578.4219 1452.2031,578.1719 1452.2031,577.8906 C1452.2031,577.6094 1452.3594,577.3281 1452.6094,577.1563 C1452.7656,577.0625 1452.8906,577.0469 1453.3438,577.0469 L1457.0156,577.0469 L1460.4063,585.25 C1460.875,585.25 1461.0313,585.2813 1461.2031,585.4219 C1461.4219,585.5781 1461.5625,585.8281 1461.5625,586.1094 C1461.5625,586.3906 1461.4063,586.6875 1461.1563,586.8281 C1461.0156,586.9219 1460.7969,586.9531 1460.4375,586.9531 L1458.0781,586.9531 C1457.6563,586.9531 1457.4531,586.9063 1457.3125,586.7813 C1457.0938,586.625 1456.9531,586.375 1456.9531,586.1094 C1456.9531,585.8125 1457.1094,585.5313 1457.3594,585.375 C1457.5156,585.2656 1457.625,585.25 1458.0781,585.25 L1458.4688,585.25 Z M1457.375,582.5625 L1456.0469,579.2969 L1454.7031,582.5625 Z "/><text fill="#000000" font-family="sans-serif" font-size="12" font-style="italic" lengthAdjust="spacingAndGlyphs" textLength="120" x="1470.5" y="586.6074">PurchaseDecorator</text><line style="stroke: #A80036; stroke-width: 1.5;" x1="1442.5" x2="1592.5" y1="598.4531" y2="598.4531"/><line style="stroke: #A80036; stroke-width: 1.5;" x1="1442.5" x2="1592.5" y1="606.4531" y2="606.4531"/><ellipse cx="1452.5" cy="617.4531" fill="#84BE84" rx="3" ry="3" style="stroke: #038048; stroke-width: 1.0;"/><text fill="#000000" font-family="sans-serif" font-size="11" lengthAdjust="spacingAndGlyphs" textLength="72" x="1461.5" y="620.6636">int getPrice()</text><!--MD5=[2c5d5e33131f8e4681b13c4cbb044beb]
class ExtensionCord--><rect fill="#FEFECE" filter="url(#fpwn8qp5u0eef)" height="48" id="ExtensionCord" style="stroke: #A80036; stroke-width: 1.5;" width="122" x="1305.5" y="726.9531"/><ellipse cx="1320.5" cy="742.9531" fill="#ADD1B2" rx="11" ry="11" style="stroke: #A80036; stroke-width: 1.0;"/><path d="M1322.8438,738.625 L1323.0156,738.7031 C1323.2344,738.3906 1323.4375,738.2969 1323.7344,738.2969 C1324.0313,738.2969 1324.3125,738.4375 1324.4688,738.7031 C1324.5625,738.8594 1324.5781,738.9844 1324.5781,739.4219 L1324.5781,740.8438 C1324.5781,741.2656 1324.5469,741.4531 1324.4375,741.6094 C1324.2656,741.8281 1324,741.9688 1323.7344,741.9688 C1323.5156,741.9688 1323.2813,741.8594 1323.1406,741.7188 C1323,741.5938 1322.9688,741.4688 1322.9063,741.0625 C1322.8125,740.6563 1322.6406,740.4375 1322.1563,740.1563 C1321.6875,739.9063 1321.0781,739.75 1320.5,739.75 C1318.7656,739.75 1317.5156,741.0625 1317.5156,742.8438 L1317.5156,743.9375 C1317.5156,745.6406 1318.8125,746.7344 1320.8594,746.7344 C1321.625,746.7344 1322.3125,746.6094 1322.7344,746.3438 C1322.9219,746.25 1322.9219,746.25 1323.375,745.7656 C1323.5625,745.5781 1323.7656,745.5 1323.9844,745.5 C1324.4531,745.5 1324.8438,745.8906 1324.8438,746.3438 C1324.8438,746.7344 1324.5156,747.1875 1323.9375,747.5938 C1323.1875,748.1406 1322.0313,748.4375 1320.8125,748.4375 C1317.9219,748.4375 1315.8125,746.5469 1315.8125,743.9688 L1315.8125,742.8438 C1315.8125,740.125 1317.8125,738.0469 1320.4375,738.0469 C1321.3125,738.0469 1321.9063,738.1875 1322.8438,738.625 Z "/><text fill="#000000" font-family="sans-serif" font-size="12" lengthAdjust="spacingAndGlyphs" textLength="90" x="1334.5" y="747.1074">ExtensionCord</text><line style="stroke: #A80036; stroke-width: 1.5;" x1="1306.5" x2="1426.5" y1="758.9531" y2="758.9531"/><line style="stroke: #A80036; stroke-width: 1.5;" x1="1306.5" x2="1426.5" y1="766.9531" y2="766.9531"/><!--MD5=[56fcbf41e4ed80603cd14400a968e1bb]
class AccessoryKit--><rect fill="#FEFECE" filter="url(#fpwn8qp5u0eef)" height="48" id="AccessoryKit" style="stroke: #A80036; stroke-width: 1.5;" width="110" x="1462.5" y="726.9531"/><ellipse cx="1477.5" cy="742.9531" fill="#ADD1B2" rx="11" ry="11" style="stroke: #A80036; stroke-width: 1.0;"/><path d="M1479.8438,738.625 L1480.0156,738.7031 C1480.2344,738.3906 1480.4375,738.2969 1480.7344,738.2969 C1481.0313,738.2969 1481.3125,738.4375 1481.4688,738.7031 C1481.5625,738.8594 1481.5781,738.9844 1481.5781,739.4219 L1481.5781,740.8438 C1481.5781,741.2656 1481.5469,741.4531 1481.4375,741.6094 C1481.2656,741.8281 1481,741.9688 1480.7344,741.9688 C1480.5156,741.9688 1480.2813,741.8594 1480.1406,741.7188 C1480,741.5938 1479.9688,741.4688 1479.9063,741.0625 C1479.8125,740.6563 1479.6406,740.4375 1479.1563,740.1563 C1478.6875,739.9063 1478.0781,739.75 1477.5,739.75 C1475.7656,739.75 1474.5156,741.0625 1474.5156,742.8438 L1474.5156,743.9375 C1474.5156,745.6406 1475.8125,746.7344 1477.8594,746.7344 C1478.625,746.7344 1479.3125,746.6094 1479.7344,746.3438 C1479.9219,746.25 1479.9219,746.25 1480.375,745.7656 C1480.5625,745.5781 1480.7656,745.5 1480.9844,745.5 C1481.4531,745.5 1481.8438,745.8906 1481.8438,746.3438 C1481.8438,746.7344 1481.5156,747.1875 1480.9375,747.5938 C1480.1875,748.1406 1479.0313,748.4375 1477.8125,748.4375 C1474.9219,748.4375 1472.8125,746.5469 1472.8125,743.9688 L1472.8125,742.8438 C1472.8125,740.125 1474.8125,738.0469 1477.4375,738.0469 C1478.3125,738.0469 1478.9063,738.1875 1479.8438,738.625 Z "/><text fill="#000000" font-family="sans-serif" font-size="12" lengthAdjust="spacingAndGlyphs" textLength="78" x="1491.5" y="747.1074">AccessoryKit</text><line style="stroke: #A80036; stroke-width: 1.5;" x1="1463.5" x2="1571.5" y1="758.9531" y2="758.9531"/><line style="stroke: #A80036; stroke-width: 1.5;" x1="1463.5" x2="1571.5" y1="766.9531" y2="766.9531"/><!--MD5=[91b9123c3eb915734fc183ff94b00309]
class ProtectiveGearPackage--><rect fill="#FEFECE" filter="url(#fpwn8qp5u0eef)" height="48" id="ProtectiveGearPackage" style="stroke: #A80036; stroke-width: 1.5;" width="179" x="1608" y="726.9531"/><ellipse cx="1623" cy="742.9531" fill="#ADD1B2" rx="11" ry="11" style="stroke: #A80036; stroke-width: 1.0;"/><path d="M1625.3438,738.625 L1625.5156,738.7031 C1625.7344,738.3906 1625.9375,738.2969 1626.2344,738.2969 C1626.5313,738.2969 1626.8125,738.4375 1626.9688,738.7031 C1627.0625,738.8594 1627.0781,738.9844 1627.0781,739.4219 L1627.0781,740.8438 C1627.0781,741.2656 1627.0469,741.4531 1626.9375,741.6094 C1626.7656,741.8281 1626.5,741.9688 1626.2344,741.9688 C1626.0156,741.9688 1625.7813,741.8594 1625.6406,741.7188 C1625.5,741.5938 1625.4688,741.4688 1625.4063,741.0625 C1625.3125,740.6563 1625.1406,740.4375 1624.6563,740.1563 C1624.1875,739.9063 1623.5781,739.75 1623,739.75 C1621.2656,739.75 1620.0156,741.0625 1620.0156,742.8438 L1620.0156,743.9375 C1620.0156,745.6406 1621.3125,746.7344 1623.3594,746.7344 C1624.125,746.7344 1624.8125,746.6094 1625.2344,746.3438 C1625.4219,746.25 1625.4219,746.25 1625.875,745.7656 C1626.0625,745.5781 1626.2656,745.5 1626.4844,745.5 C1626.9531,745.5 1627.3438,745.8906 1627.3438,746.3438 C1627.3438,746.7344 1627.0156,747.1875 1626.4375,747.5938 C1625.6875,748.1406 1624.5313,748.4375 1623.3125,748.4375 C1620.4219,748.4375 1618.3125,746.5469 1618.3125,743.9688 L1618.3125,742.8438 C1618.3125,740.125 1620.3125,738.0469 1622.9375,738.0469 C1623.8125,738.0469 1624.4063,738.1875 1625.3438,738.625 Z "/><text fill="#000000" font-family="sans-serif" font-size="12" lengthAdjust="spacingAndGlyphs" textLength="147" x="1637" y="747.1074">ProtectiveGearPackage</text><line style="stroke: #A80036; stroke-width: 1.5;" x1="1609" x2="1786" y1="758.9531" y2="758.9531"/><line style="stroke: #A80036; stroke-width: 1.5;" x1="1609" x2="1786" y1="766.9531" y2="766.9531"/><!--MD5=[a5434914be3597e6b6eea4eb1813d633]
class CasualCustomer--><rect fill="#FEFECE" filter="url(#fpwn8qp5u0eef)" height="48" id="CasualCustomer" style="stroke: #A80036; stroke-width: 1.5;" width="134" x="686.5" y="848.9531"/><ellipse cx="701.5" cy="864.9531" fill="#ADD1B2" rx="11" ry="11" style="stroke: #A80036; stroke-width: 1.0;"/><path d="M703.8438,860.625 L704.0156,860.7031 C704.2344,860.3906 704.4375,860.2969 704.7344,860.2969 C705.0313,860.2969 705.3125,860.4375 705.4688,860.7031 C705.5625,860.8594 705.5781,860.9844 705.5781,861.4219 L705.5781,862.8438 C705.5781,863.2656 705.5469,863.4531 705.4375,863.6094 C705.2656,863.8281 705,863.9688 704.7344,863.9688 C704.5156,863.9688 704.2813,863.8594 704.1406,863.7188 C704,863.5938 703.9688,863.4688 703.9063,863.0625 C703.8125,862.6563 703.6406,862.4375 703.1563,862.1563 C702.6875,861.9063 702.0781,861.75 701.5,861.75 C699.7656,861.75 698.5156,863.0625 698.5156,864.8438 L698.5156,865.9375 C698.5156,867.6406 699.8125,868.7344 701.8594,868.7344 C702.625,868.7344 703.3125,868.6094 703.7344,868.3438 C703.9219,868.25 703.9219,868.25 704.375,867.7656 C704.5625,867.5781 704.7656,867.5 704.9844,867.5 C705.4531,867.5 705.8438,867.8906 705.8438,868.3438 C705.8438,868.7344 705.5156,869.1875 704.9375,869.5938 C704.1875,870.1406 703.0313,870.4375 701.8125,870.4375 C698.9219,870.4375 696.8125,868.5469 696.8125,865.9688 L696.8125,864.8438 C696.8125,862.125 698.8125,860.0469 701.4375,860.0469 C702.3125,860.0469 702.9063,860.1875 703.8438,860.625 Z "/><text fill="#000000" font-family="sans-serif" font-size="12" lengthAdjust="spacingAndGlyphs" textLength="102" x="715.5" y="869.1074">CasualCustomer</text><line style="stroke: #A80036; stroke-width: 1.5;" x1="687.5" x2="819.5" y1="880.9531" y2="880.9531"/><line style="stroke: #A80036; stroke-width: 1.5;" x1="687.5" x2="819.5" y1="888.9531" y2="888.9531"/><!--MD5=[e42c8948bbf1cb14953938bcc00c5c2e]
class BusinessCustomer--><rect fill="#FEFECE" filter="url(#fpwn8qp5u0eef)" height="48" id="BusinessCustomer" style="stroke: #A80036; stroke-width: 1.5;" width="148" x="855.5" y="848.9531"/><ellipse cx="870.5" cy="864.9531" fill="#ADD1B2" rx="11" ry="11" style="stroke: #A80036; stroke-width: 1.0;"/><path d="M872.8438,860.625 L873.0156,860.7031 C873.2344,860.3906 873.4375,860.2969 873.7344,860.2969 C874.0313,860.2969 874.3125,860.4375 874.4688,860.7031 C874.5625,860.8594 874.5781,860.9844 874.5781,861.4219 L874.5781,862.8438 C874.5781,863.2656 874.5469,863.4531 874.4375,863.6094 C874.2656,863.8281 874,863.9688 873.7344,863.9688 C873.5156,863.9688 873.2813,863.8594 873.1406,863.7188 C873,863.5938 872.9688,863.4688 872.9063,863.0625 C872.8125,862.6563 872.6406,862.4375 872.1563,862.1563 C871.6875,861.9063 871.0781,861.75 870.5,861.75 C868.7656,861.75 867.5156,863.0625 867.5156,864.8438 L867.5156,865.9375 C867.5156,867.6406 868.8125,868.7344 870.8594,868.7344 C871.625,868.7344 872.3125,868.6094 872.7344,868.3438 C872.9219,868.25 872.9219,868.25 873.375,867.7656 C873.5625,867.5781 873.7656,867.5 873.9844,867.5 C874.4531,867.5 874.8438,867.8906 874.8438,868.3438 C874.8438,868.7344 874.5156,869.1875 873.9375,869.5938 C873.1875,870.1406 872.0313,870.4375 870.8125,870.4375 C867.9219,870.4375 865.8125,868.5469 865.8125,865.9688 L865.8125,864.8438 C865.8125,862.125 867.8125,860.0469 870.4375,860.0469 C871.3125,860.0469 871.9063,860.1875 872.8438,860.625 Z "/><text fill="#000000" font-family="sans-serif" font-size="12" lengthAdjust="spacingAndGlyphs" textLength="116" x="884.5" y="869.1074">BusinessCustomer</text><line style="stroke: #A80036; stroke-width: 1.5;" x1="856.5" x2="1002.5" y1="880.9531" y2="880.9531"/><line style="stroke: #A80036; stroke-width: 1.5;" x1="856.5" x2="1002.5" y1="888.9531" y2="888.9531"/><!--MD5=[a720371821dedbc3039e690c98268102]
class RegularCustomer--><rect fill="#FEFECE" filter="url(#fpwn8qp5u0eef)" height="48" id="RegularCustomer" style="stroke: #A80036; stroke-width: 1.5;" width="140" x="1038.5" y="848.9531"/><ellipse cx="1053.5" cy="864.9531" fill="#ADD1B2" rx="11" ry="11" style="stroke: #A80036; stroke-width: 1.0;"/><path d="M1055.8438,860.625 L1056.0156,860.7031 C1056.2344,860.3906 1056.4375,860.2969 1056.7344,860.2969 C1057.0313,860.2969 1057.3125,860.4375 1057.4688,860.7031 C1057.5625,860.8594 1057.5781,860.9844 1057.5781,861.4219 L1057.5781,862.8438 C1057.5781,863.2656 1057.5469,863.4531 1057.4375,863.6094 C1057.2656,863.8281 1057,863.9688 1056.7344,863.9688 C1056.5156,863.9688 1056.2813,863.8594 1056.1406,863.7188 C1056,863.5938 1055.9688,863.4688 1055.9063,863.0625 C1055.8125,862.6563 1055.6406,862.4375 1055.1563,862.1563 C1054.6875,861.9063 1054.0781,861.75 1053.5,861.75 C1051.7656,861.75 1050.5156,863.0625 1050.5156,864.8438 L1050.5156,865.9375 C1050.5156,867.6406 1051.8125,868.7344 1053.8594,868.7344 C1054.625,868.7344 1055.3125,868.6094 1055.7344,868.3438 C1055.9219,868.25 1055.9219,868.25 1056.375,867.7656 C1056.5625,867.5781 1056.7656,867.5 1056.9844,867.5 C1057.4531,867.5 1057.8438,867.8906 1057.8438,868.3438 C1057.8438,868.7344 1057.5156,869.1875 1056.9375,869.5938 C1056.1875,870.1406 1055.0313,870.4375 1053.8125,870.4375 C1050.9219,870.4375 1048.8125,868.5469 1048.8125,865.9688 L1048.8125,864.8438 C1048.8125,862.125 1050.8125,860.0469 1053.4375,860.0469 C1054.3125,860.0469 1054.9063,860.1875 1055.8438,860.625 Z "/><text fill="#000000" font-family="sans-serif" font-size="12" lengthAdjust="spacingAndGlyphs" textLength="108" x="1067.5" y="869.1074">RegularCustomer</text><line style="stroke: #A80036; stroke-width: 1.5;" x1="1039.5" x2="1177.5" y1="880.9531" y2="880.9531"/><line style="stroke: #A80036; stroke-width: 1.5;" x1="1039.5" x2="1177.5" y1="888.9531" y2="888.9531"/><!--MD5=[c0bd9f44073f1a51428d87d6a9cf071b]
class Observable--><rect fill="#FEFECE" filter="url(#fpwn8qp5u0eef)" height="105.1563" id="Observable" style="stroke: #A80036; stroke-width: 1.5;" width="169" x="758" y="28.9531"/><ellipse cx="804.25" cy="47.9219" fill="#A9DCDF" rx="11" ry="11" style="stroke: #A80036; stroke-width: 1.0;"/><path d="M805.8281,49.7344 L801.7813,49.7344 L801.3906,50.7188 L801.7813,50.7188 C802.2344,50.7188 802.375,50.75 802.5469,50.875 C802.7656,51.0469 802.8906,51.2969 802.8906,51.5781 C802.8906,51.8594 802.75,52.1563 802.4844,52.2969 C802.3594,52.3906 802.1406,52.4219 801.7813,52.4219 L799.5156,52.4219 C798.7656,52.4219 798.3906,52.1406 798.3906,51.5781 C798.3906,51.2813 798.5469,51 798.7969,50.8438 C798.9531,50.7344 799.1094,50.7188 799.5313,50.7188 L802.1719,44.2031 L801.0938,44.2031 C800.6563,44.2031 800.4844,44.1719 800.3125,44.0625 C800.0938,43.8906 799.9531,43.6406 799.9531,43.3594 C799.9531,43.0781 800.1094,42.7969 800.3594,42.625 C800.5156,42.5313 800.6406,42.5156 801.0938,42.5156 L804.7656,42.5156 L808.1563,50.7188 C808.625,50.7188 808.7813,50.75 808.9531,50.8906 C809.1719,51.0469 809.3125,51.2969 809.3125,51.5781 C809.3125,51.8594 809.1563,52.1563 808.9063,52.2969 C808.7656,52.3906 808.5469,52.4219 808.1875,52.4219 L805.8281,52.4219 C805.4063,52.4219 805.2031,52.375 805.0625,52.25 C804.8438,52.0938 804.7031,51.8438 804.7031,51.5781 C804.7031,51.2813 804.8594,51 805.1094,50.8438 C805.2656,50.7344 805.375,50.7188 805.8281,50.7188 L806.2188,50.7188 Z M805.125,48.0313 L803.7969,44.7656 L802.4531,48.0313 Z "/><text fill="#000000" font-family="sans-serif" font-size="12" font-style="italic" lengthAdjust="spacingAndGlyphs" textLength="70" x="823.75" y="45.0918">«interface»</text><text fill="#000000" font-family="sans-serif" font-size="12" font-style="italic" lengthAdjust="spacingAndGlyphs" textLength="68" x="824.75" y="59.0605">Observable</text><line style="stroke: #A80036; stroke-width: 1.5;" x1="759" x2="926" y1="66.8906" y2="66.8906"/><rect fill="none" height="6" style="stroke: #C82930; stroke-width: 1.0;" width="6" x="766" y="74.8906"/><text fill="#000000" font-family="sans-serif" font-size="11" lengthAdjust="spacingAndGlyphs" textLength="143" x="778" y="81.1011">List[Observer] observers</text><line style="stroke: #A80036; stroke-width: 1.5;" x1="759" x2="926" y1="87.6953" y2="87.6953"/><ellipse cx="769" cy="98.6953" fill="#84BE84" rx="3" ry="3" style="stroke: #038048; stroke-width: 1.0;"/><text fill="#000000" font-family="sans-serif" font-size="11" lengthAdjust="spacingAndGlyphs" textLength="106" x="778" y="101.9058">registerObserver()</text><ellipse cx="769" cy="111.5" fill="#84BE84" rx="3" ry="3" style="stroke: #038048; stroke-width: 1.0;"/><text fill="#000000" font-family="sans-serif" font-size="11" lengthAdjust="spacingAndGlyphs" textLength="104" x="778" y="114.7104">removeObserver()</text><ellipse cx="769" cy="124.3047" fill="#84BE84" rx="3" ry="3" style="stroke: #038048; stroke-width: 1.0;"/><text fill="#000000" font-family="sans-serif" font-size="11" lengthAdjust="spacingAndGlyphs" textLength="99" x="778" y="127.5151">notifyObservers()</text><!--MD5=[d40932010816485ec57b44b6eea2392a]
class Observer--><rect fill="#FEFECE" filter="url(#fpwn8qp5u0eef)" height="79.5469" id="Observer" style="stroke: #A80036; stroke-width: 1.5;" width="98" x="728.5" y="210.9531"/><ellipse cx="743.5" cy="229.9219" fill="#A9DCDF" rx="11" ry="11" style="stroke: #A80036; stroke-width: 1.0;"/><path d="M745.0781,231.7344 L741.0313,231.7344 L740.6406,232.7188 L741.0313,232.7188 C741.4844,232.7188 741.625,232.75 741.7969,232.875 C742.0156,233.0469 742.1406,233.2969 742.1406,233.5781 C742.1406,233.8594 742,234.1563 741.7344,234.2969 C741.6094,234.3906 741.3906,234.4219 741.0313,234.4219 L738.7656,234.4219 C738.0156,234.4219 737.6406,234.1406 737.6406,233.5781 C737.6406,233.2813 737.7969,233 738.0469,232.8438 C738.2031,232.7344 738.3594,232.7188 738.7813,232.7188 L741.4219,226.2031 L740.3438,226.2031 C739.9063,226.2031 739.7344,226.1719 739.5625,226.0625 C739.3438,225.8906 739.2031,225.6406 739.2031,225.3594 C739.2031,225.0781 739.3594,224.7969 739.6094,224.625 C739.7656,224.5313 739.8906,224.5156 740.3438,224.5156 L744.0156,224.5156 L747.4063,232.7188 C747.875,232.7188 748.0313,232.75 748.2031,232.8906 C748.4219,233.0469 748.5625,233.2969 748.5625,233.5781 C748.5625,233.8594 748.4063,234.1563 748.1563,234.2969 C748.0156,234.3906 747.7969,234.4219 747.4375,234.4219 L745.0781,234.4219 C744.6563,234.4219 744.4531,234.375 744.3125,234.25 C744.0938,234.0938 743.9531,233.8438 743.9531,233.5781 C743.9531,233.2813 744.1094,233 744.3594,232.8438 C744.5156,232.7344 744.625,232.7188 745.0781,232.7188 L745.4688,232.7188 Z M744.375,230.0313 L743.0469,226.7656 L741.7031,230.0313 Z "/><text fill="#000000" font-family="sans-serif" font-size="12" font-style="italic" lengthAdjust="spacingAndGlyphs" textLength="70" x="755.5" y="227.0918">«interface»</text><text fill="#000000" font-family="sans-serif" font-size="12" font-style="italic" lengthAdjust="spacingAndGlyphs" textLength="54" x="763.5" y="241.0605">Observer</text><line style="stroke: #A80036; stroke-width: 1.5;" x1="729.5" x2="825.5" y1="248.8906" y2="248.8906"/><line style="stroke: #A80036; stroke-width: 1.5;" x1="729.5" x2="825.5" y1="256.8906" y2="256.8906"/><ellipse cx="739.5" cy="267.8906" fill="#84BE84" rx="3" ry="3" style="stroke: #038048; stroke-width: 1.0;"/><text fill="#000000" font-family="sans-serif" font-size="11" lengthAdjust="spacingAndGlyphs" textLength="47" x="748.5" y="271.1011">update()</text><ellipse cx="739.5" cy="280.6953" fill="#84BE84" rx="3" ry="3" style="stroke: #038048; stroke-width: 1.0;"/><text fill="#000000" font-family="sans-serif" font-size="11" lengthAdjust="spacingAndGlyphs" textLength="64" x="748.5" y="283.9058">subscribe()</text><!--MD5=[05bb106962aff5a58b33f7fddcb71c11]
class CustomerPool--><rect fill="#FEFECE" filter="url(#fpwn8qp5u0eef)" height="112.0234" id="CustomerPool" style="stroke: #A80036; stroke-width: 1.5;" width="175" x="1018" y="540.9531"/><ellipse cx="1058.2" cy="556.9531" fill="#ADD1B2" rx="11" ry="11" style="stroke: #A80036; stroke-width: 1.0;"/><path d="M1060.5438,552.625 L1060.7156,552.7031 C1060.9344,552.3906 1061.1375,552.2969 1061.4344,552.2969 C1061.7313,552.2969 1062.0125,552.4375 1062.1688,552.7031 C1062.2625,552.8594 1062.2781,552.9844 1062.2781,553.4219 L1062.2781,554.8438 C1062.2781,555.2656 1062.2469,555.4531 1062.1375,555.6094 C1061.9656,555.8281 1061.7,555.9688 1061.4344,555.9688 C1061.2156,555.9688 1060.9813,555.8594 1060.8406,555.7188 C1060.7,555.5938 1060.6688,555.4688 1060.6063,555.0625 C1060.5125,554.6563 1060.3406,554.4375 1059.8563,554.1563 C1059.3875,553.9063 1058.7781,553.75 1058.2,553.75 C1056.4656,553.75 1055.2156,555.0625 1055.2156,556.8438 L1055.2156,557.9375 C1055.2156,559.6406 1056.5125,560.7344 1058.5594,560.7344 C1059.325,560.7344 1060.0125,560.6094 1060.4344,560.3438 C1060.6219,560.25 1060.6219,560.25 1061.075,559.7656 C1061.2625,559.5781 1061.4656,559.5 1061.6844,559.5 C1062.1531,559.5 1062.5438,559.8906 1062.5438,560.3438 C1062.5438,560.7344 1062.2156,561.1875 1061.6375,561.5938 C1060.8875,562.1406 1059.7313,562.4375 1058.5125,562.4375 C1055.6219,562.4375 1053.5125,560.5469 1053.5125,557.9688 L1053.5125,556.8438 C1053.5125,554.125 1055.5125,552.0469 1058.1375,552.0469 C1059.0125,552.0469 1059.6063,552.1875 1060.5438,552.625 Z "/><text fill="#000000" font-family="sans-serif" font-size="12" lengthAdjust="spacingAndGlyphs" textLength="87" x="1077.8" y="561.1074">CustomerPool</text><line style="stroke: #A80036; stroke-width: 1.5;" x1="1019" x2="1192" y1="572.9531" y2="572.9531"/><rect fill="none" height="6" style="stroke: #C82930; stroke-width: 1.0;" width="6" x="1026" y="580.9531"/><text fill="#000000" font-family="sans-serif" font-size="11" lengthAdjust="spacingAndGlyphs" textLength="149" x="1038" y="587.1636">List[Customer] customers</text><line style="stroke: #A80036; stroke-width: 1.5;" x1="1019" x2="1192" y1="593.7578" y2="593.7578"/><rect fill="#F24D5C" height="6" style="stroke: #C82930; stroke-width: 1.0;" width="6" x="1026" y="601.7578"/><text fill="#000000" font-family="sans-serif" font-size="11" lengthAdjust="spacingAndGlyphs" textLength="88" x="1038" y="607.9683">CustomerPool()</text><ellipse cx="1029" cy="617.5625" fill="#84BE84" rx="3" ry="3" style="stroke: #038048; stroke-width: 1.0;"/><text fill="#000000" font-family="sans-serif" font-size="11" lengthAdjust="spacingAndGlyphs" textLength="74" x="1038" y="620.7729">getInstance()</text><ellipse cx="1029" cy="630.3672" fill="#84BE84" rx="3" ry="3" style="stroke: #038048; stroke-width: 1.0;"/><text fill="#000000" font-family="sans-serif" font-size="11" lengthAdjust="spacingAndGlyphs" textLength="135" x="1038" y="633.5776">getCustomerPurchase()</text><ellipse cx="1029" cy="643.1719" fill="#84BE84" rx="3" ry="3" style="stroke: #038048; stroke-width: 1.0;"/><text fill="#000000" font-family="sans-serif" font-size="11" lengthAdjust="spacingAndGlyphs" textLength="119" x="1038" y="646.3823">getCustomerReturn()</text><!--MD5=[84718776d214be480e4c259efcb737fc]
class Main--><rect fill="#FEFECE" filter="url(#fpwn8qp5u0eef)" height="60.8047" id="Main" style="stroke: #A80036; stroke-width: 1.5;" width="62" x="985.5" y="377.4531"/><ellipse cx="1000.95" cy="393.4531" fill="#ADD1B2" rx="11" ry="11" style="stroke: #A80036; stroke-width: 1.0;"/><path d="M1003.2938,389.125 L1003.4656,389.2031 C1003.6844,388.8906 1003.8875,388.7969 1004.1844,388.7969 C1004.4813,388.7969 1004.7625,388.9375 1004.9188,389.2031 C1005.0125,389.3594 1005.0281,389.4844 1005.0281,389.9219 L1005.0281,391.3438 C1005.0281,391.7656 1004.9969,391.9531 1004.8875,392.1094 C1004.7156,392.3281 1004.45,392.4688 1004.1844,392.4688 C1003.9656,392.4688 1003.7313,392.3594 1003.5906,392.2188 C1003.45,392.0938 1003.4188,391.9688 1003.3563,391.5625 C1003.2625,391.1563 1003.0906,390.9375 1002.6063,390.6563 C1002.1375,390.4063 1001.5281,390.25 1000.95,390.25 C999.2156,390.25 997.9656,391.5625 997.9656,393.3438 L997.9656,394.4375 C997.9656,396.1406 999.2625,397.2344 1001.3094,397.2344 C1002.075,397.2344 1002.7625,397.1094 1003.1844,396.8438 C1003.3719,396.75 1003.3719,396.75 1003.825,396.2656 C1004.0125,396.0781 1004.2156,396 1004.4344,396 C1004.9031,396 1005.2938,396.3906 1005.2938,396.8438 C1005.2938,397.2344 1004.9656,397.6875 1004.3875,398.0938 C1003.6375,398.6406 1002.4813,398.9375 1001.2625,398.9375 C998.3719,398.9375 996.2625,397.0469 996.2625,394.4688 L996.2625,393.3438 C996.2625,390.625 998.2625,388.5469 1000.8875,388.5469 C1001.7625,388.5469 1002.3563,388.6875 1003.2938,389.125 Z "/><text fill="#000000" font-family="sans-serif" font-size="12" lengthAdjust="spacingAndGlyphs" textLength="29" x="1015.05" y="397.6074">Main</text><line style="stroke: #A80036; stroke-width: 1.5;" x1="986.5" x2="1046.5" y1="409.4531" y2="409.4531"/><line style="stroke: #A80036; stroke-width: 1.5;" x1="986.5" x2="1046.5" y1="417.4531" y2="417.4531"/><ellipse cx="996.5" cy="428.4531" fill="#84BE84" rx="3" ry="3" style="stroke: #038048; stroke-width: 1.0;"/><text fill="#000000" font-family="sans-serif" font-size="11" lengthAdjust="spacingAndGlyphs" textLength="36" x="1005.5" y="431.6636">main()</text><!--MD5=[ae3a128105c8497d4d43497e079d3d02]
reverse link ToolshopInventory to Tool--><path d="M582.013,533.3881 C601.426,520.6871 623.04,509.1911 645,502.4531 C761.421,466.7321 1077.58,463.6111 1193,502.4531 C1220.39,511.6711 1246.54,529.5741 1267.74,547.3411 " fill="none" id="ToolshopInventory&lt;-Tool" style="stroke: #A80036; stroke-width: 1.0;"/><polygon fill="#FFFFFF" points="571.16,540.7601,578.3708,540.6968,581.0858,534.0163,573.875,534.0796,571.16,540.7601" style="stroke: #A80036; stroke-width: 1.0;"/><text fill="#000000" font-family="sans-serif" font-size="13" lengthAdjust="spacingAndGlyphs" textLength="16" x="1243.6175" y="536.3706">24</text><!--MD5=[0b47f2bd471ed68e76bab6c04737fcd6]
reverse link Store to RentalRecord--><path d="M737.414,477.0661 C738.409,500.3311 739.502,525.8651 740.418,547.2861 " fill="none" id="Store&lt;-RentalRecord" style="stroke: #A80036; stroke-width: 1.0;"/><polygon fill="#A80036" points="736.857,464.0481,733.1171,470.2136,737.3699,476.0372,741.1098,469.8717,736.857,464.0481" style="stroke: #A80036; stroke-width: 1.0;"/><text fill="#000000" font-family="sans-serif" font-size="13" lengthAdjust="spacingAndGlyphs" textLength="8" x="728.6568" y="483.8723">1</text><text fill="#000000" font-family="sans-serif" font-size="13" lengthAdjust="spacingAndGlyphs" textLength="7" x="732.633" y="536.3079">*</text><!--MD5=[fb76e1868f2b9d6c6e7f4502eacbe7cf]
reverse link RentalRecord to Customer--><path d="M812.465,654.8231 C836.833,674.6301 863.482,696.2911 885.187,713.9341 " fill="none" id="RentalRecord&lt;-Customer" style="stroke: #A80036; stroke-width: 1.0;"/><polygon fill="#FFFFFF" points="802.182,646.4651,804.3146,653.3537,811.4935,654.0346,809.3609,647.146,802.182,646.4651" style="stroke: #A80036; stroke-width: 1.0;"/><text fill="#000000" font-family="sans-serif" font-size="13" lengthAdjust="spacingAndGlyphs" textLength="8" x="802.3603" y="666.8993">1</text><text fill="#000000" font-family="sans-serif" font-size="13" lengthAdjust="spacingAndGlyphs" textLength="8" x="868.2793" y="702.8411">1</text><!--MD5=[cfd5b3be8cde9847e07103713194ecaa]
reverse link Store to ToolshopInventory--><path d="M656.761,472.4341 C629.53,494.6711 599.195,519.4421 572.882,540.9291 " fill="none" id="Store&lt;-ToolshopInventory" style="stroke: #A80036; stroke-width: 1.0;"/><polygon fill="#A80036" points="667.031,464.0481,659.8536,464.7448,657.7362,471.638,664.9135,470.9413,667.031,464.0481" style="stroke: #A80036; stroke-width: 1.0;"/><text fill="#000000" font-family="sans-serif" font-size="13" lengthAdjust="spacingAndGlyphs" textLength="8" x="650.3207" y="483.8723">1</text><text fill="#000000" font-family="sans-serif" font-size="13" lengthAdjust="spacingAndGlyphs" textLength="8" x="573.0028" y="529.864">1</text><!--MD5=[bf72198e63226bd40d91863858ed491b]
link Tool to ToolCategory--><path d="M1229.29,547.4421 C1223.04,544.9791 1216.74,542.7761 1210.5,540.9531 C1052.28,494.7221 1005.683,516.0711 841,508.9531 C637.36,500.1521 575.517,472.5711 383.5,540.9531 C374.481,544.1651 365.532,548.6511 357.054,553.7011 " fill="none" id="Tool-ToolCategory" style="stroke: #A80036; stroke-width: 1.0;"/><text fill="#000000" font-family="sans-serif" font-size="13" lengthAdjust="spacingAndGlyphs" textLength="53" x="787" y="507.02">strategy</text><text fill="#000000" font-family="sans-serif" font-size="13" lengthAdjust="spacingAndGlyphs" textLength="8" x="356.7951" y="542.9751">1</text><!--MD5=[0dfe7a6c79df15fec0c3df8fb909c133]
reverse link ToolCategory to Painting--><path d="M380.052,650.8091 C381.207,651.5321 382.357,652.2471 383.5,652.9531 C430.73,682.1281 444.575,685.9351 492.5,713.9531 C498.094,717.2231 503.953,720.7161 509.716,724.1911 " fill="none" id="ToolCategory&lt;-Painting" style="stroke: #A80036; stroke-width: 1.0;"/><polygon fill="none" points="376.214,656.6631,363.165,639.9681,383.777,644.8821,376.214,656.6631" style="stroke: #A80036; stroke-width: 1.0;"/><!--MD5=[409daa64af6a1226fa78fc65ebd31187]
reverse link ToolCategory to Concrete--><path d="M221.751,646.6581 C179.757,671.9891 130.028,701.9831 95.0086,723.1071 " fill="none" id="ToolCategory&lt;-Concrete" style="stroke: #A80036; stroke-width: 1.0;"/><polygon fill="none" points="218.168,640.6451,238.91,636.3091,225.399,652.6331,218.168,640.6451" style="stroke: #A80036; stroke-width: 1.0;"/><!--MD5=[fb7b94eeb218e2f37787f0e7dc0b3ba9]
reverse link ToolCategory to Plumbing--><path d="M253.762,655.8291 C235.223,677.8451 214.869,702.0151 199.429,720.3501 " fill="none" id="ToolCategory&lt;-Plumbing" style="stroke: #A80036; stroke-width: 1.0;"/><polygon fill="none" points="248.608,651.0831,266.845,640.2931,259.317,660.1011,248.608,651.0831" style="stroke: #A80036; stroke-width: 1.0;"/><!--MD5=[ea2f02288a5f6f5c8a12a583af195f33]
reverse link ToolCategory to Woodwork--><path d="M302.5,660.3451 C302.5,681.1031 302.5,703.2611 302.5,720.3501 " fill="none" id="ToolCategory&lt;-Woodwork" style="stroke: #A80036; stroke-width: 1.0;"/><polygon fill="none" points="295.5,660.2941,302.5,640.2931,309.5,660.2931,295.5,660.2941" style="stroke: #A80036; stroke-width: 1.0;"/><!--MD5=[07317079b48f62edeb49f53aa2315761]
reverse link ToolCategory to Yardwork--><path d="M351.238,655.8291 C369.777,677.8451 390.131,702.0151 405.571,720.3501 " fill="none" id="ToolCategory&lt;-Yardwork" style="stroke: #A80036; stroke-width: 1.0;"/><polygon fill="none" points="345.683,660.1011,338.155,640.2931,356.392,651.0831,345.683,660.1011" style="stroke: #A80036; stroke-width: 1.0;"/><!--MD5=[0e4f0383f702407015e024a9f64c1bf5]
reverse link Purchasable to Tool--><path d="M1386.73,469.0401 C1372.91,494.3741 1357.03,523.4771 1343.97,547.4181 " fill="none" id="Purchasable&lt;-Tool" style="stroke: #A80036; stroke-width: 1.0;"/><polygon fill="none" points="1380.63,465.5921,1396.35,451.3861,1392.92,472.2961,1380.63,465.5921" style="stroke: #A80036; stroke-width: 1.0;"/><!--MD5=[5429a7b434c17d36d284ea52ba725390]
reverse link Purchasable to PurchaseDecorator--><path d="M1477.84,466.5581 C1484.53,475.2431 1490.68,484.4811 1495.5,493.9531 C1507.01,516.5531 1512.51,544.9401 1515.13,566.0251 " fill="none" id="Purchasable&lt;-PurchaseDecorator" style="stroke: #A80036; stroke-width: 1.0;"/><polygon fill="none" points="1472.38,470.9421,1464.92,451.1101,1483.12,461.9611,1472.38,470.9421" style="stroke: #A80036; stroke-width: 1.0;"/><!--MD5=[dd3481c20174711eaa4f92016b9b1036]
link PurchaseDecorator to Purchasable--><path d="M1463.45,566.3021 C1443.61,552.3421 1423.36,533.7091 1412.5,510.9531 C1403.75,492.6101 1404.23,470.2701 1407.43,451.1791 " fill="none" id="PurchaseDecorator-Purchasable" style="stroke: #A80036; stroke-width: 1.0;"/><text fill="#000000" font-family="sans-serif" font-size="13" lengthAdjust="spacingAndGlyphs" textLength="73" x="1413.5" y="507.02">component</text><!--MD5=[f18efa345b812e3fface1f1f229f4afe]
reverse link PurchaseDecorator to ExtensionCord--><path d="M1473.57,642.1761 C1446.06,669.8621 1411.74,704.4111 1389.48,726.8161 " fill="none" id="PurchaseDecorator&lt;-ExtensionCord" style="stroke: #A80036; stroke-width: 1.0;"/><polygon fill="none" points="1468.97,636.8761,1488.03,627.6211,1478.9,646.7431,1468.97,636.8761" style="stroke: #A80036; stroke-width: 1.0;"/><!--MD5=[3c995e9d649c4ea336fb9c997d73caaf]
reverse link PurchaseDecorator to AccessoryKit--><path d="M1517.5,647.6411 C1517.5,674.2901 1517.5,705.8641 1517.5,726.8161 " fill="none" id="PurchaseDecorator&lt;-AccessoryKit" style="stroke: #A80036; stroke-width: 1.0;"/><polygon fill="none" points="1510.5,647.6211,1517.5,627.6211,1524.5,647.6211,1510.5,647.6211" style="stroke: #A80036; stroke-width: 1.0;"/><!--MD5=[683dfa0b9d3edfd3b2a730f9320b31f8]
reverse link PurchaseDecorator to ProtectiveGearPackage--><path d="M1568.06,640.6451 C1601.14,668.5791 1643.08,703.9971 1670.1,726.8161 " fill="none" id="PurchaseDecorator&lt;-ProtectiveGearPackage" style="stroke: #A80036; stroke-width: 1.0;"/><polygon fill="none" points="1563.4,645.8731,1552.63,627.6211,1572.43,635.1761,1563.4,645.8731" style="stroke: #A80036; stroke-width: 1.0;"/><!--MD5=[9367e8a4a726e739ae59225c8ecd2cef]
reverse link Customer to CasualCustomer--><path d="M864.689,796.1431 C838.433,814.0441 809.212,833.9675 787.317,848.8958 " fill="none" id="Customer&lt;-CasualCustomer" style="stroke: #A80036; stroke-width: 1.0;"/><polygon fill="none" points="860.939,790.2271,881.407,784.7441,868.826,801.794,860.939,790.2271" style="stroke: #A80036; stroke-width: 1.0;"/><!--MD5=[1911b537e87156e250cb64c518a7dad4]
reverse link Customer to BusinessCustomer--><path d="M929.5,808.3522 C929.5,822.6671 929.5,837.2563 929.5,848.8448 " fill="none" id="Customer&lt;-BusinessCustomer" style="stroke: #A80036; stroke-width: 1.0;"/><polygon fill="none" points="922.5,807.9571,929.5,787.9571,936.5,807.957,922.5,807.9571" style="stroke: #A80036; stroke-width: 1.0;"/><!--MD5=[551cea3b077e5ea756bb56e102314cf7]
reverse link Customer to RegularCustomer--><path d="M994.579,795.5811 C1021.42,813.5782 1051.44,833.703 1073.92,848.7742 " fill="none" id="Customer&lt;-RegularCustomer" style="stroke: #A80036; stroke-width: 1.0;"/><polygon fill="none" points="990.654,801.378,977.94,784.4271,998.45,789.7491,990.654,801.378" style="stroke: #A80036; stroke-width: 1.0;"/><!--MD5=[e8e176af9f90b86a3aec53f069f72dfd]
reverse link Observable to Customer--><path d="M873.996,152.9461 C884.462,182.3341 893.5,217.1941 893.5,249.9531 C893.5,249.9531 893.5,249.9531 893.5,597.9531 C893.5,638.3601 905.695,683.2221 915.89,713.6651 " fill="none" id="Observable&lt;-Customer" style="stroke: #A80036; stroke-width: 1.0;"/><polygon fill="none" points="867.371,155.2181,866.805,134.0361,880.457,150.2421,867.371,155.2181" style="stroke: #A80036; stroke-width: 1.0;"/><!--MD5=[9f8531a2b64a5386f88f5ba2e9bd4b42]
reverse link Observer to Store--><path d="M761.21,310.6711 C757.472,324.1481 753.509,338.4311 749.813,351.7531 " fill="none" id="Observer&lt;-Store" style="stroke: #A80036; stroke-width: 1.0;"/><polygon fill="none" points="754.557,308.4671,766.649,291.0661,768.048,312.2091,754.557,308.4671" style="stroke: #A80036; stroke-width: 1.0;"/><!--MD5=[8e2a9fffec268e9f5174791eb82aa096]
link Observable to Observer--><path d="M815.523,134.0261 C810.872,143.8301 806.315,154.1061 802.5,163.9531 C797.298,177.3821 792.587,192.3521 788.694,205.9901 " fill="none" id="Observable-&gt;Observer" style="stroke: #A80036; stroke-width: 1.0;"/><polygon fill="#A80036" points="787.297,210.9481,793.5874,203.3698,788.6527,206.1354,785.887,201.2007,787.297,210.9481" style="stroke: #A80036; stroke-width: 1.0;"/><text fill="#000000" font-family="sans-serif" font-size="13" lengthAdjust="spacingAndGlyphs" textLength="63" x="803.5" y="177.02">observers</text><text fill="#000000" font-family="sans-serif" font-size="13" lengthAdjust="spacingAndGlyphs" textLength="7" x="781.3793" y="199.9005">*</text><!--MD5=[33140d1a5fee87d5301242963ee9e56d]
reverse link CustomerPool to Customer--><path d="M1031.47,661.8891 C1010.9,679.6531 989.286,698.3201 971.278,713.8721 " fill="none" id="CustomerPool&lt;-Customer" style="stroke: #A80036; stroke-width: 1.0;"/><polygon fill="#FFFFFF" points="1041.46,653.2581,1034.3047,654.1538,1032.3795,661.1032,1039.5348,660.2075,1041.46,653.2581" style="stroke: #A80036; stroke-width: 1.0;"/><text fill="#000000" font-family="sans-serif" font-size="13" lengthAdjust="spacingAndGlyphs" textLength="16" x="961.5058" y="702.7677">12</text><!--MD5=[8122084870e1d06013fbba5614c34299]
link Main to CustomerPool--><path d="M1030.6,438.5841 C1043.64,465.9781 1063.35,507.3841 1079.27,540.8481 " fill="none" id="Main-CustomerPool" style="stroke: #A80036; stroke-width: 1.0;"/><text fill="#000000" font-family="sans-serif" font-size="13" lengthAdjust="spacingAndGlyphs" textLength="8" x="1067.3968" y="529.7726">1</text><!--MD5=[e03992988812a6ac9989806147a19243]
link Main to Customer--><path d="M1008.93,438.6181 C993.368,499.6191 957.748,639.2351 939.98,708.8771 " fill="none" id="Main-&gt;Customer" style="stroke: #A80036; stroke-width: 1.0;"/><polygon fill="#A80036" points="938.732,713.7681,944.8319,706.0356,939.9675,708.9232,937.08,704.0588,938.732,713.7681" style="stroke: #A80036; stroke-width: 1.0;"/><!--MD5=[6f45c62ff0f5fc4b008b4f94cf2e8e1b]
@startuml
title Toolshop


class ToolshopInventory
{
    -List[Tool] inventory
    -ToolshopInventory()
    +{static} ToolshopInventory getInstance()
    +Tool checkoutTool()
    +returnTool(Tool)
}    
Tool "24" -right-o ToolshopInventory

class RentalRecord
{
    -Customer renter
    -List[Purchasable] toolsRented
    +RentalRecord()
    +List[Purchasable] getTools()
}

Store "1" *- - "*" RentalRecord
RentalRecord "1" o- - "1" Customer

class Store
{
    -{static} Store instance
    -Store()
    -ToolshopInventory inventory
    -List[RentalRecord] rentalRecords
    +{static} Store getInstance()
}

Store "1" *- - "1" ToolshopInventory



abstract class Tool
{
    #ToolCategory cat
    +Tool()
    +setCategory(ToolCategory)
    +int getPrice()
}

abstract class ToolCategory
{
    #int basePrice
    +ToolCategory(int)
    +int getBasePrice()
}

Tool -right- "1" ToolCategory: strategy

class Painting
{
    +Painting()
}
class Concrete
{
    +Concrete()
}
class Plumbing
{
    +Plumbing()
}
class Woodwork
{
    +Woodwork()
}
class Yardwork
{
    +Yardwork()
}

ToolCategory <|-down- Painting
ToolCategory <|-down- Concrete
ToolCategory <|-down- Plumbing
ToolCategory <|-down- Woodwork
ToolCategory <|-down- Yardwork

abstract class Purchasable
{
    #int cost
    #int timeOfRental
    +int getPrice()
}

Purchasable <|-down- Tool

abstract class PurchaseDecorator
{
    +int getPrice()
}

Purchasable <|-down- PurchaseDecorator

class ExtensionCord
class AccessoryKit
class ProtectiveGearPackage

PurchaseDecorator <|-down- ExtensionCord
PurchaseDecorator <|-down- AccessoryKit
PurchaseDecorator <|-down- ProtectiveGearPackage

PurchaseDecorator - - Purchasable: component

abstract class Customer
{
    #String name
    +{abstract} rentTools()
}
class CasualCustomer
class BusinessCustomer
class RegularCustomer

Customer <|-down- CasualCustomer
Customer <|-down- BusinessCustomer
Customer <|-down- RegularCustomer

abstract class Observable <<interface>>
{
    + registerObserver()
    + removeObserver()
    + notifyObservers()
    - List[Observer] observers
}

Observable <|-down- Customer

abstract class Observer <<interface>>
{
    + update()
    + subscribe()
}

Observer <|-down- Store

Observable - -> "*" Observer: observers

class CustomerPool
{
    - CustomerPool()
    + getInstance()
    
    - List[Customer] customers
    + getCustomerPurchase()
    + getCustomerReturn()
}

class Main
{
    + main()
}

CustomerPool o- - "12" Customer
Main - - "1" CustomerPool
Main - -> Customer
@enduml

PlantUML version 1.2019.11(Sun Sep 22 10:02:15 UTC 2019)
(GPL source distribution)
Java Runtime: Java(TM) SE Runtime Environment
JVM: Java HotSpot(TM) 64-Bit Server VM
Java Version: 1.7.0_25-b15
Operating System: Linux
Default Encoding: UTF-8
Language: en
Country: US
--></g></svg>